<svg xmlns="http://www.w3.org/2000/svg" xmlns:xlink="http://www.w3.org/1999/xlink" width="2000" zoomAndPan="magnify" viewBox="0 0 1500 1499.999933" height="2000" preserveAspectRatio="xMidYMid meet" version="1.0"><defs><clipPath id="d8f06db1e9"><path d="M 46.628906 46.628906 L 1449.734375 46.628906 L 1449.734375 1449.734375 L 46.628906 1449.734375 Z M 46.628906 46.628906 " clip-rule="nonzero"/></clipPath><clipPath id="ad47ea2263"><path d="M 748.179688 46.628906 C 360.722656 46.628906 46.628906 360.722656 46.628906 748.179688 C 46.628906 1135.636719 360.722656 1449.734375 748.179688 1449.734375 C 1135.636719 1449.734375 1449.734375 1135.636719 1449.734375 748.179688 C 1449.734375 360.722656 1135.636719 46.628906 748.179688 46.628906 Z M 748.179688 46.628906 " clip-rule="nonzero"/></clipPath><clipPath id="467c06b75c"><path d="M 0.628906 0.628906 L 1403.734375 0.628906 L 1403.734375 1403.734375 L 0.628906 1403.734375 Z M 0.628906 0.628906 " clip-rule="nonzero"/></clipPath><clipPath id="aed4cfca63"><path d="M 702.179688 0.628906 C 314.722656 0.628906 0.628906 314.722656 0.628906 702.179688 C 0.628906 1089.636719 314.722656 1403.734375 702.179688 1403.734375 C 1089.636719 1403.734375 1403.734375 1089.636719 1403.734375 702.179688 C 1403.734375 314.722656 1089.636719 0.628906 702.179688 0.628906 Z M 702.179688 0.628906 " clip-rule="nonzero"/></clipPath><clipPath id="9c5829a1f1"><rect x="0" width="1404" y="0" height="1404"/></clipPath><clipPath id="8ae2169597"><path d="M 373.671875 339.808594 L 1122.921875 339.808594 L 1122.921875 1160 L 373.671875 1160 Z M 373.671875 339.808594 " clip-rule="nonzero"/></clipPath></defs><g clip-path="url(#d8f06db1e9)"><g clip-path="url(#ad47ea2263)"><g transform="matrix(1, 0, 0, 1, 46, 46)"><g clip-path="url(#9c5829a1f1)"><g clip-path="url(#467c06b75c)"><g clip-path="url(#aed4cfca63)"><path fill="#ffffff" d="M 0.628906 0.628906 L 1403.734375 0.628906 L 1403.734375 1403.734375 L 0.628906 1403.734375 Z M 0.628906 0.628906 " fill-opacity="1" fill-rule="nonzero"/></g></g></g></g></g></g><g clip-path="url(#8ae2169597)"><path fill="#6c0009" d="M 453.890625 1157.449219 C 396.203125 1144.402344 363.554688 1094.40625 376.59375 1039.089844 C 387.933594 990.984375 428.890625 950.617188 485.234375 932.015625 C 500.355469 927.019531 504.492188 926.511719 530.289062 926.472656 C 558.382812 926.425781 565.644531 927.683594 585.628906 936.039062 C 588.882812 937.402344 589.058594 926.089844 589.058594 714.367188 L 589.058594 491.246094 L 639.5 476.984375 C 667.242188 469.140625 738.425781 449.144531 797.683594 432.546875 C 856.9375 415.949219 950.332031 389.59375 1005.230469 373.976562 C 1060.125 358.359375 1105.25 345.800781 1105.519531 346.070312 C 1105.789062 346.34375 1106.148438 472.589844 1106.320312 626.628906 C 1106.601562 883.128906 1106.351562 907.753906 1103.339844 919.292969 C 1089.996094 970.394531 1040.058594 1014.792969 981.824219 1027.335938 C 975.363281 1028.726562 961.257812 1029.867188 950.484375 1029.867188 C 917.597656 1029.867188 893.074219 1020.933594 872.007812 1001.277344 C 829.894531 961.980469 833.109375 898.457031 879.695312 849.402344 C 901.363281 826.589844 928.539062 810.113281 958.726562 801.488281 C 971.078125 797.960938 978.851562 797.140625 999.457031 797.199219 C 1024.15625 797.269531 1033.039062 798.890625 1051.855469 806.761719 C 1055.101562 808.117188 1055.285156 800.570312 1055.285156 664.003906 C 1055.285156 580.5 1054.546875 519.816406 1053.53125 519.816406 C 1052.566406 519.816406 1046.175781 521.523438 1039.328125 523.613281 C 1032.484375 525.703125 979.277344 540.742188 921.097656 557.03125 C 862.917969 573.324219 776.289062 597.621094 728.585938 611.023438 C 680.878906 624.425781 641.457031 635.390625 640.976562 635.390625 C 640.492188 635.390625 639.855469 727.289062 639.558594 839.609375 L 639.015625 1043.828125 L 634.695312 1055.140625 C 623.441406 1084.621094 603.882812 1109.871094 577.992188 1128.34375 C 563.5625 1138.640625 537.71875 1151.007812 521.480469 1155.386719 C 504.542969 1159.957031 469.65625 1161.027344 453.898438 1157.460938 Z M 1205.332031 421.40625 C 1198.183594 395.539062 1189.203125 386.632812 1161.796875 378.222656 L 1146.359375 373.484375 L 1155.175781 371.976562 C 1169.648438 369.503906 1187.265625 360.507812 1193.410156 352.449219 C 1196.449219 348.46875 1201.269531 338.59375 1204.121094 330.511719 L 1209.308594 315.8125 L 1212.503906 327.210938 C 1219.453125 352 1232.070312 363.832031 1258.777344 370.617188 L 1272.859375 374.191406 L 1262.070312 376.609375 C 1256.132812 377.9375 1246.070312 381.625 1239.707031 384.804688 C 1226.023438 391.644531 1219.183594 400.742188 1212.933594 420.425781 L 1208.726562 433.679688 Z M 1029.804688 327.738281 C 1029.804688 317.574219 1021.097656 307.808594 1007.390625 302.605469 L 998.25 299.136719 L 1006.542969 296.652344 C 1021.109375 292.289062 1024.386719 288.699219 1030.828125 270.050781 C 1031.921875 266.886719 1032.707031 267.882812 1034.910156 275.234375 C 1038.207031 286.214844 1048.210938 295.726562 1058.496094 297.65625 L 1065.71875 299.011719 L 1055.683594 302.757812 C 1044.132812 307.066406 1036.394531 315.199219 1034.5625 324.957031 C 1033.183594 332.3125 1029.804688 334.285156 1029.804688 327.742188 Z M 1122.53125 292.410156 C 1114.039062 252.371094 1094.519531 233.289062 1053.6875 225.109375 L 1042.699219 222.90625 C 1042.699219 222.90625 1053.839844 221.328125 1058.636719 218.640625 C 1083.679688 204.621094 1110.34375 195.660156 1121.09375 159.371094 C 1123.488281 151.289062 1125.851562 146 1126.347656 147.617188 C 1126.84375 149.230469 1128.777344 155.84375 1130.644531 162.308594 C 1137.355469 185.558594 1149.066406 201.1875 1166.410156 210.035156 C 1173.289062 213.546875 1186.421875 217.71875 1201.210938 221.097656 C 1206.488281 222.300781 1205.585938 222.820312 1192.394531 226.171875 C 1171.964844 231.363281 1154.703125 240.265625 1146.507812 249.839844 C 1139.710938 257.785156 1132.242188 274.730469 1127.320312 293.386719 L 1124.777344 303.011719 Z M 1122.53125 292.410156 " fill-opacity="1" fill-rule="nonzero"/></g></svg>