<svg xmlns="http://www.w3.org/2000/svg" xmlns:xlink="http://www.w3.org/1999/xlink" width="2000" zoomAndPan="magnify" viewBox="0 0 1500 1499.999933" height="2000" preserveAspectRatio="xMidYMid meet" version="1.0"><defs><clipPath id="a2b22279b3"><path d="M 46.628906 46.628906 L 1449.734375 46.628906 L 1449.734375 1449.734375 L 46.628906 1449.734375 Z M 46.628906 46.628906 " clip-rule="nonzero"/></clipPath><clipPath id="d99450a2a6"><path d="M 748.179688 46.628906 C 360.722656 46.628906 46.628906 360.722656 46.628906 748.179688 C 46.628906 1135.636719 360.722656 1449.734375 748.179688 1449.734375 C 1135.636719 1449.734375 1449.734375 1135.636719 1449.734375 748.179688 C 1449.734375 360.722656 1135.636719 46.628906 748.179688 46.628906 Z M 748.179688 46.628906 " clip-rule="nonzero"/></clipPath><clipPath id="7f8a6f8682"><path d="M 0.628906 0.628906 L 1403.734375 0.628906 L 1403.734375 1403.734375 L 0.628906 1403.734375 Z M 0.628906 0.628906 " clip-rule="nonzero"/></clipPath><clipPath id="889e9dd340"><path d="M 702.179688 0.628906 C 314.722656 0.628906 0.628906 314.722656 0.628906 702.179688 C 0.628906 1089.636719 314.722656 1403.734375 702.179688 1403.734375 C 1089.636719 1403.734375 1403.734375 1089.636719 1403.734375 702.179688 C 1403.734375 314.722656 1089.636719 0.628906 702.179688 0.628906 Z M 702.179688 0.628906 " clip-rule="nonzero"/></clipPath><clipPath id="7e30caa38d"><rect x="0" width="1404" y="0" height="1404"/></clipPath><clipPath id="a89fb816b2"><path d="M 301.597656 259.046875 L 1194.847656 259.046875 L 1194.847656 1237 L 301.597656 1237 Z M 301.597656 259.046875 " clip-rule="nonzero"/></clipPath></defs><g clip-path="url(#a2b22279b3)"><g clip-path="url(#d99450a2a6)"><g transform="matrix(1, 0, 0, 1, 46, 46)"><g clip-path="url(#7e30caa38d)"><g clip-path="url(#7f8a6f8682)"><g clip-path="url(#889e9dd340)"><path fill="#ffffff" d="M 0.628906 0.628906 L 1403.734375 0.628906 L 1403.734375 1403.734375 L 0.628906 1403.734375 Z M 0.628906 0.628906 " fill-opacity="1" fill-rule="nonzero"/></g></g></g></g></g></g><g clip-path="url(#a89fb816b2)"><path fill="#6c0009" d="M 397.253906 1234.039062 C 328.464844 1218.476562 289.53125 1158.863281 305.078125 1092.902344 C 318.601562 1035.535156 367.4375 987.398438 434.625 965.21875 C 452.65625 959.265625 457.59375 958.65625 488.351562 958.609375 C 521.855469 958.554688 530.511719 960.050781 554.34375 970.019531 C 558.222656 971.640625 558.429688 958.152344 558.429688 705.6875 L 558.429688 439.625 L 618.578125 422.621094 C 651.660156 413.265625 736.542969 389.417969 807.203125 369.628906 C 877.867188 349.839844 989.234375 318.410156 1054.695312 299.789062 C 1120.15625 281.164062 1173.964844 266.191406 1174.285156 266.511719 C 1174.605469 266.835938 1175.035156 417.378906 1175.238281 601.0625 C 1175.574219 906.925781 1175.277344 936.289062 1171.6875 950.046875 C 1155.773438 1010.984375 1096.226562 1063.929688 1026.789062 1078.882812 C 1019.078125 1080.542969 1002.261719 1081.902344 989.414062 1081.902344 C 950.195312 1081.902344 920.953125 1071.25 895.835938 1047.8125 C 845.617188 1000.953125 849.453125 925.203125 905.003906 866.710938 C 930.839844 839.503906 963.246094 819.859375 999.242188 809.574219 C 1013.96875 805.367188 1023.238281 804.390625 1047.808594 804.460938 C 1077.265625 804.542969 1087.855469 806.476562 1110.292969 815.859375 C 1114.167969 817.480469 1114.382812 808.476562 1114.382812 645.628906 C 1114.382812 546.058594 1113.503906 473.691406 1112.292969 473.691406 C 1111.144531 473.691406 1103.523438 475.730469 1095.359375 478.222656 C 1087.191406 480.710938 1023.75 498.644531 954.375 518.070312 C 884.996094 537.496094 781.695312 566.46875 724.808594 582.453125 C 667.925781 598.433594 620.914062 611.511719 620.339844 611.511719 C 619.765625 611.511719 619.003906 721.09375 618.648438 855.03125 L 618.003906 1098.546875 L 612.855469 1112.039062 C 599.433594 1147.191406 576.109375 1177.300781 545.234375 1199.332031 C 528.03125 1211.609375 497.210938 1226.359375 477.847656 1231.578125 C 457.652344 1237.027344 416.050781 1238.300781 397.261719 1234.050781 Z M 1293.308594 356.34375 C 1284.78125 325.5 1274.074219 314.878906 1241.394531 304.847656 L 1222.988281 299.199219 L 1233.5 297.402344 C 1250.757812 294.453125 1271.761719 283.726562 1279.089844 274.117188 C 1282.714844 269.371094 1288.460938 257.597656 1291.863281 247.957031 L 1298.050781 230.429688 L 1301.859375 244.023438 C 1310.144531 273.582031 1325.191406 287.691406 1357.039062 295.78125 L 1373.828125 300.046875 L 1360.960938 302.925781 C 1353.886719 304.507812 1341.882812 308.90625 1334.296875 312.699219 C 1317.980469 320.855469 1309.824219 331.703125 1302.371094 355.175781 L 1297.355469 370.976562 Z M 1084 244.652344 C 1084 232.53125 1073.617188 220.886719 1057.269531 214.683594 L 1046.375 210.546875 L 1056.257812 207.582031 C 1073.628906 202.378906 1077.539062 198.097656 1085.21875 175.859375 C 1086.523438 172.085938 1087.460938 173.277344 1090.089844 182.042969 C 1094.019531 195.136719 1105.949219 206.480469 1118.210938 208.78125 L 1126.828125 210.398438 L 1114.859375 214.859375 C 1101.082031 220 1091.855469 229.699219 1089.675781 241.332031 C 1088.027344 250.101562 1084 252.460938 1084 244.652344 Z M 1194.570312 202.519531 C 1184.445312 154.78125 1161.171875 132.023438 1112.480469 122.269531 L 1099.375 119.644531 C 1099.375 119.644531 1112.65625 117.761719 1118.378906 114.558594 C 1148.242188 97.839844 1180.039062 87.152344 1192.855469 43.878906 C 1195.710938 34.242188 1198.53125 27.9375 1199.121094 29.863281 C 1199.714844 31.789062 1202.019531 39.675781 1204.246094 47.382812 C 1212.25 75.109375 1226.214844 93.746094 1246.894531 104.296875 C 1255.097656 108.480469 1270.757812 113.457031 1288.394531 117.484375 C 1294.683594 118.921875 1293.609375 119.539062 1277.882812 123.535156 C 1253.519531 129.726562 1232.933594 140.34375 1223.164062 151.761719 C 1215.054688 161.234375 1206.148438 181.441406 1200.28125 203.6875 L 1197.25 215.167969 Z M 1194.570312 202.519531 " fill-opacity="1" fill-rule="nonzero"/></g></svg>